<svg width="381" height="297" viewBox="0 0 381 297" fill="none" xmlns="http://www.w3.org/2000/svg" class="absolute -right-24 bottom-28 h-full"><g id="clouds" opacity="0.8"><g id="top-clouds" transform-origin="153.21344566345215px 45.745601654052734px" style="transform: translateY(0.0265112px); transform-origin: 153.213px 45.7456px;"><path d="M204.454 45.8004H146.472C138.662 45.8004 132.33 52.1297 132.33 59.9374V59.9438C132.33 67.7515 138.662 74.0809 146.472 74.0809H204.454C212.264 74.0809 218.595 67.7515 218.595 59.9438V59.9374C218.595 52.1297 212.264 45.8004 204.454 45.8004Z" fill="#2B59C3"></path><path d="M194.754 0H57.3447C49.5347 0 43.2035 6.32936 43.2035 14.137V14.1435C43.2035 21.9511 49.5347 28.2805 57.3447 28.2805H194.754C202.564 28.2805 208.895 21.9511 208.895 14.1435V14.137C208.895 6.32936 202.564 0 194.754 0Z" fill="#2B59C3"></path><path d="M238.363 23.261H119.414C111.604 23.261 105.273 29.5904 105.273 37.398V37.4045C105.273 45.2122 111.604 51.5415 119.414 51.5415H238.363C246.173 51.5415 252.505 45.2122 252.505 37.4045V37.398C252.505 29.5904 246.173 23.261 238.363 23.261Z" fill="#2B59C3"></path><path opacity="0.82" d="M182.682 63.2107H90.171C82.3611 63.2107 76.0298 69.54 76.0298 77.3477V77.3542C76.0298 85.1618 82.3611 91.4912 90.171 91.4912H182.682C190.492 91.4912 196.823 85.1618 196.823 77.3542V77.3477C196.823 69.54 190.492 63.2107 182.682 63.2107Z" fill="#2B59C3"></path><path d="M191.886 37.398H28.6111C20.8011 37.398 14.4699 43.7274 14.4699 51.5351V51.5415C14.4699 59.3492 20.8011 65.6785 28.6111 65.6785H191.886C199.696 65.6785 206.027 59.3492 206.027 51.5415V51.5351C206.027 43.7274 199.696 37.398 191.886 37.398Z" fill="#2B59C3"></path><path opacity="0.82" d="M277.816 15.9348H185.305C177.495 15.9348 171.164 22.2641 171.164 30.0718V30.0782C171.164 37.8859 177.495 44.2153 185.305 44.2153H277.816C285.626 44.2153 291.957 37.8859 291.957 30.0782V30.0718C291.957 22.2641 285.626 15.9348 277.816 15.9348Z" fill="#2B59C3"></path></g><g id="middle-clouds" transform-origin="254.5865020751953px 139.00239944458008px" style="transform: translateY(0.150105px); transform-origin: 254.587px 139.002px;"><path d="M366.859 103.167H203.945C196.135 103.167 189.804 109.496 189.804 117.304V117.31C189.804 125.118 196.135 131.447 203.945 131.447H366.859C374.669 131.447 381 125.118 381 117.31V117.304C381 109.496 374.669 103.167 366.859 103.167Z" fill="#2B59C3"></path><path opacity="0.82" d="M283.855 150.262H147.799C139.989 150.262 133.658 156.592 133.658 164.399V164.406C133.658 172.213 139.989 178.543 147.799 178.543H283.855C291.665 178.543 297.996 172.213 297.996 164.406V164.399C297.996 156.592 291.665 150.262 283.855 150.262Z" fill="#2B59C3"></path><path opacity="0.82" d="M155.959 99.4618H142.314C134.504 99.4618 128.173 105.791 128.173 113.599V113.605C128.173 121.413 134.504 127.742 142.314 127.742H155.959C163.769 127.742 170.1 121.413 170.1 113.605V113.599C170.1 105.791 163.769 99.4618 155.959 99.4618Z" fill="#2B59C3"></path><path d="M339.788 119.701H176.513C168.704 119.701 162.372 126.03 162.372 133.838V133.844C162.372 141.652 168.704 147.981 176.513 147.981H339.788C347.598 147.981 353.929 141.652 353.929 133.844V133.838C353.929 126.03 347.598 119.701 339.788 119.701Z" fill="#2B59C3"></path></g><g id="bottom-clouds" transform-origin="237.10700225830078px 247.96199798583984px" style="transform: translateY(0.375267px); transform-origin: 237.107px 247.962px;"><path d="M356.159 250.465H192.885C185.075 250.465 178.744 256.794 178.744 264.602V264.609C178.744 272.416 185.075 278.746 192.885 278.746H356.159C363.969 278.746 370.301 272.416 370.301 264.609V264.602C370.301 256.794 363.969 250.465 356.159 250.465Z" fill="#2B59C3"></path><path opacity="0.82" d="M267.716 268.72H131.66C123.85 268.72 117.519 275.049 117.519 282.857V282.863C117.519 290.671 123.85 297 131.66 297H267.716C275.526 297 281.857 290.671 281.857 282.863V282.857C281.857 275.049 275.526 268.72 267.716 268.72Z" fill="#2B59C3"></path><path d="M330.629 198.924H167.355C159.545 198.924 153.213 205.253 153.213 213.061V213.067C153.213 220.875 159.545 227.204 167.355 227.204H330.629C338.439 227.204 344.77 220.875 344.77 213.067V213.061C344.77 205.253 338.439 198.924 330.629 198.924Z" fill="#2B59C3"></path><path d="M281.328 223.467H118.054C110.244 223.467 103.913 229.796 103.913 237.604V237.61C103.913 245.418 110.244 251.747 118.054 251.747H281.328C289.138 251.747 295.47 245.418 295.47 237.61V237.604C295.47 229.796 289.138 223.467 281.328 223.467Z" fill="#2B59C3"></path></g><g id="tiny-clouds" transform-origin="45.604400634765625px 162.88199615478516px" style="transform: translateY(0.713159px); transform-origin: 45.6044px 162.882px;"><path d="M43.4999 154.528H14.1412C6.33123 154.528 0 160.857 0 168.665V168.671C0 176.479 6.33123 182.808 14.1412 182.808H43.4999C51.3099 182.808 57.6411 176.479 57.6411 168.671V168.665C57.6411 160.857 51.3099 154.528 43.4999 154.528Z" fill="#2B59C3"></path><path opacity="0.82" d="M77.0676 162.879H48.2244C40.4145 162.879 34.0833 169.208 34.0833 177.016V177.022C34.0833 184.83 40.4145 191.159 48.2244 191.159H77.0676C84.8775 191.159 91.2088 184.83 91.2088 177.022V177.016C91.2088 169.208 84.8775 162.879 77.0676 162.879Z" fill="#2B59C3"></path><path d="M61.0766 134.605H31.7178C23.9078 134.605 17.5766 140.934 17.5766 148.742V148.748C17.5766 156.556 23.9078 162.885 31.7178 162.885H61.0766C68.8865 162.885 75.2177 156.556 75.2177 148.748V148.742C75.2177 140.934 68.8865 134.605 61.0766 134.605Z" fill="#2B59C3"></path></g></g><defs><clipPath id="cloud-group-clip"><rect width="381" height="297" fill="white"></rect></clipPath></defs></svg>