<svg width="41" height="51" viewBox="0 0 41 51" fill="none" xmlns="http://www.w3.org/2000/svg">
<path d="M12.6855 41.8592C10.1631 39.6394 9.42681 34.9752 10.4777 31.5961C12.2999 33.7265 14.8246 34.4014 17.4398 34.7824C21.477 35.3702 25.4419 35.1504 29.1923 33.3738C29.6214 33.1704 30.0179 32.8999 30.4867 32.626C30.8386 33.609 30.9301 34.6013 30.8073 35.6112C30.5084 38.0709 29.237 39.9709 27.2147 41.4112C26.4061 41.9873 25.5504 42.5023 24.7152 43.0455C22.1495 44.7151 21.4553 46.6727 22.4194 49.5204C22.4424 49.5897 22.4629 49.6591 22.5147 49.8284C21.2047 49.2641 20.2477 48.4422 19.5187 47.3617C18.7486 46.2212 18.3822 44.9596 18.3629 43.5946C18.3533 42.9303 18.3533 42.2601 18.2605 41.6052C18.0339 40.0086 17.2554 39.2937 15.7888 39.2525C14.2835 39.2102 13.0929 40.1062 12.7771 41.517C12.753 41.6252 12.7181 41.7322 12.6831 41.858L12.6855 41.8592Z" fill="#FF6B00"/>
<path d="M0 32.6306C0 32.6306 6.89705 29.3608 13.8134 29.3608L19.028 13.6552C19.2232 12.8956 19.7933 12.3795 20.4368 12.3795C21.0804 12.3795 21.6504 12.8956 21.8456 13.6552L27.0603 29.3608C35.2517 29.3608 40.8736 32.6306 40.8736 32.6306C40.8736 32.6306 29.1584 1.57197 29.1355 1.50966C28.7993 0.591402 28.2317 0 27.4664 0H13.4084C12.6432 0 12.0984 0.591402 11.7393 1.50966C11.714 1.5708 0 32.6306 0 32.6306Z" fill="black"/>
</svg>
