<svg width="60" height="50" viewBox="0 0 60 50" fill="none" xmlns="http://www.w3.org/2000/svg">
<path d="M59.7425 1.18395C59.5894 1.05367 59.3935 0.984689 59.1926 0.990326C58.6427 0.990326 57.934 1.36208 57.5545 1.5712L57.4016 1.64864C56.7618 1.95865 56.0652 2.13395 55.355 2.16368C54.6269 2.18692 53.9996 2.22951 53.1825 2.31277C48.3419 2.81232 46.183 6.52214 44.1035 10.11C42.9728 12.0617 41.8033 14.0793 40.2001 15.6418C39.8673 15.963 39.5141 16.2624 39.1429 16.5383C37.4835 17.7755 35.4001 18.6488 33.7718 19.2722C32.2092 19.8686 30.5073 20.4049 28.8596 20.9238C27.3532 21.3982 25.9281 21.8455 24.6192 22.3334C24.0287 22.5522 23.5272 22.7207 23.0838 22.8678C21.893 23.2551 21.0314 23.5513 19.7767 24.4168C19.2868 24.7518 18.795 25.1139 18.4601 25.3849C17.4626 26.1803 16.5803 27.1102 15.8384 28.1479C15.1995 29.1063 14.4617 29.9947 13.6369 30.7986C13.3736 31.0581 12.9011 31.1859 12.1983 31.1859C11.3715 31.1859 10.3724 31.0155 9.31135 30.8354C8.25029 30.6554 7.09243 30.4482 6.12431 30.4482C5.33626 30.4482 4.73603 30.576 4.28489 30.8354C4.28489 30.8354 3.52976 31.2769 3.20834 31.8481L3.52201 31.9894C4.00871 32.2536 4.45963 32.579 4.86382 32.9575C5.28237 33.3476 5.75044 33.6809 6.25597 33.9489C6.41875 34.0108 6.56656 34.1065 6.68969 34.2296C6.55609 34.4233 6.36247 34.673 6.15916 34.9402C5.04196 36.4021 4.39138 37.3257 4.76507 37.8291C4.94397 37.9227 5.14417 37.9681 5.34594 37.9608C7.78366 37.9608 9.09062 37.3276 10.748 36.526C11.2263 36.2937 11.7162 36.0536 12.297 35.8096C13.2651 35.3894 14.3068 34.7195 15.4105 34.0108C16.8723 33.0718 18.3845 32.0998 19.8483 31.6293C21.0545 31.2615 22.3109 31.0851 23.5717 31.1065C25.1207 31.1065 26.751 31.3137 28.3232 31.515C29.4966 31.6661 30.7087 31.821 31.8994 31.9023C32.3622 31.9294 32.7901 31.943 33.2083 31.943C33.7652 31.9445 34.3218 31.9154 34.8754 31.8558L35.0071 31.8094C35.8435 31.2962 36.2347 30.1945 36.6122 29.1296C36.8562 28.4442 37.0614 27.8285 37.3867 27.4373C37.4062 27.4177 37.4276 27.4002 37.4506 27.3851C37.4659 27.3766 37.4835 27.3735 37.5008 27.3763C37.518 27.3791 37.5337 27.3877 37.5455 27.4005C37.5489 27.4106 37.5489 27.4215 37.5455 27.4315C37.3519 31.5964 35.6732 34.2393 33.979 36.5899L32.8288 37.7962C32.8288 37.7962 34.4127 37.7962 35.315 37.4477C38.6066 36.4641 41.0927 34.2955 42.9011 30.8374C43.3469 29.9498 43.745 29.0391 44.0938 28.1092C44.1248 28.0318 44.4114 27.8885 44.3823 28.2893C44.3823 28.4074 44.3668 28.5391 44.3572 28.6765C44.3572 28.7578 44.3455 28.8411 44.3417 28.9244C44.2933 29.5052 44.1481 30.7328 44.1481 30.7328L45.1646 30.1887C47.6158 28.6397 49.5056 25.5147 50.9384 20.6528C51.5367 18.6275 51.9724 16.6157 52.3577 14.8441C52.8185 12.7142 53.2154 10.8883 53.6705 10.1797C54.3849 9.06829 55.475 8.31703 56.5303 7.58707C56.6755 7.48832 56.8188 7.39345 56.9601 7.28889C58.2884 6.35756 59.6069 5.28295 59.8954 3.27895V3.23442C60.1162 1.73965 59.9361 1.36789 59.7425 1.18395Z" fill="black"/>
</svg>
