<?xml version="1.0" standalone="no"?>
<!DOCTYPE svg PUBLIC "-//W3C//DTD SVG 20010904//EN"
 "http://www.w3.org/TR/2001/REC-SVG-20010904/DTD/svg10.dtd">
<svg version="1.0" xmlns="http://www.w3.org/2000/svg"
 width="512.000000pt" height="512.000000pt" viewBox="0 0 512.000000 512.000000"
 preserveAspectRatio="xMidYMid meet">

<g transform="translate(0.000000,512.000000) scale(0.100000,-0.100000)"
fill="#000000" stroke="none">
<path d="M417 4369 c-105 -25 -204 -106 -254 -207 l-28 -57 0 -1545 0 -1545
28 -57 c38 -77 107 -144 187 -182 l65 -31 2145 0 2145 0 67 32 c81 38 146 102
185 181 l28 57 0 1545 0 1545 -28 57 c-39 79 -104 143 -185 181 l-67 32 -2125
2 c-1214 0 -2141 -3 -2163 -8z m4282 -248 c56 -40 61 -65 61 -306 l0 -215
-2200 0 -2200 0 0 215 c0 161 4 224 14 249 14 34 56 70 91 79 11 2 961 4 2110
3 l2090 -1 34 -24z m61 -1891 c0 -1253 3 -1185 -61 -1231 l-34 -24 -2105 0
-2105 0 -34 24 c-64 46 -61 -22 -61 1231 l0 1140 2200 0 2200 0 0 -1140z"/>
<path d="M3063 3970 c-40 -24 -53 -48 -53 -100 0 -34 6 -48 34 -76 l34 -34
101 0 c115 0 151 12 176 60 30 57 10 127 -45 155 -45 23 -206 21 -247 -5z"/>
<path d="M3665 3981 c-27 -11 -51 -40 -65 -75 -14 -39 2 -88 41 -121 28 -23
38 -25 130 -25 116 0 148 12 173 64 20 42 20 59 0 101 -23 49 -65 65 -171 64
-48 0 -97 -4 -108 -8z"/>
<path d="M4243 3974 c-31 -15 -63 -66 -63 -98 0 -35 30 -85 59 -100 21 -12 59
-16 130 -16 96 0 102 1 131 28 55 49 56 124 4 173 -23 22 -35 24 -127 27 -78
2 -109 -1 -134 -14z"/>
</g>
</svg>
